<?xml version="1.0" encoding="utf-8"?>
<!DOCTYPE svg PUBLIC "-//W3C//DTD SVG 1.0//EN" "http://www.w3.org/TR/2001/REC-SVG-20010904/DTD/svg10.dtd">
<svg version="1.0" xmlns="http://www.w3.org/2000/svg" width="97px" height="74px" viewBox="0 0 97 74" preserveAspectRatio="xMidYMid meet">
 <g fill="#ffffff">
  <path d="M0 37 l0 -37 48.5 0 48.5 0 0 37 0 37 -48.5 0 -48.5 0 0 -37z m71 24.5 c0 -2 0.5 -2.5 2.5 -2.5 l2.5 0 -0.2 -23.2 -0.3 -23.3 -25.2 -0.3 -25.3 -0.2 0 23.5 0 23.5 2.5 0 c2 0 2.5 0.5 2.5 2.5 l0 2.5 20.5 0 20.5 0 0 -2.5z m-56.2 -10.7 c-0.5 -3.4 -3.8 -3.7 -3.8 -0.4 0 2 0.5 2.6 2.1 2.6 1.5 0 2 -0.5 1.7 -2.2z m75.2 -0.3 c0 -1.8 -0.5 -2.5 -2 -2.5 -1.5 0 -2 0.7 -2 2.5 0 1.8 0.5 2.5 2 2.5 1.5 0 2 -0.7 2 -2.5z"/>
  <path d="M39.1 52.4 l-3.1 -2.6 0 -11.9 c0 -11.7 0.1 -12.1 2.6 -14.4 2.5 -2.4 3.3 -2.5 14.5 -2.5 l11.9 0 0 14.4 0 14.4 -3.1 2.6 c-2.7 2.3 -3.9 2.6 -11.4 2.6 -7.5 0 -8.7 -0.3 -11.4 -2.6z"/>
 </g>
 <g fill="#0076cf">
  <path d="M17 66.5 c0 -4.1 0.2 -4.5 2.5 -4.5 l2.5 0 0 -26.5 0 -26.5 28.3 0.2 28.2 0.3 0.3 26.3 0.2 26.2 -2.5 0 c-2 0 -2.5 0.5 -2.5 2.5 l0 2.5 -23.5 0 -23.5 0 0 -2.5 c0 -2 -0.5 -2.5 -2.5 -2.5 -2 0 -2.5 0.5 -2.5 2.5 0 1.8 0.5 2.5 2 2.5 1.3 0 2 0.7 2 2 0 1.7 -0.7 2 -4.5 2 l-4.5 0 0 -4.5z m41.9 -17.1 c3.4 -2.9 4 -5.9 1.4 -6.6 -2.5 -0.7 -4.3 0.1 -4.3 1.8 0 1 -1.4 1.4 -5.5 1.4 l-5.5 0 0 -8 0 -8 8.5 0 8.5 0 0 -3 0 -3 -8.9 0 c-8 0 -9.1 0.2 -11.5 2.5 -2.4 2.3 -2.6 3 -2.6 11.4 0 8.7 0.1 9 3.1 11.5 4.4 3.7 12.4 3.7 16.8 0z m3.1 -11.4 l0 -3 -6 0 -6 0 0 3 0 3 6 0 6 0 0 -3z"/>
  <path d="M74.4 69.4 c0.3 -0.9 0.6 -1.8 0.6 -2 0 -0.2 0.9 -0.4 1.9 -0.4 1.3 0 2.1 -0.8 2.3 -2.2 0.2 -1.5 1.1 -2.4 2.6 -2.6 2 -0.3 2.2 0.1 2.2 4.2 l0 4.6 -5.1 0 c-4.3 0 -5 -0.3 -4.5 -1.6z"/>
  <path d="M7.8 55.3 c-0.2 -0.5 -0.3 -2.8 -0.3 -5.3 l0 -4.5 5 0 5 0 0.3 5.3 0.3 5.2 -5 0 c-2.7 0 -5.1 -0.3 -5.3 -0.7z"/>
  <path d="M83 50.5 l0 -5.6 5.3 0.3 5.2 0.3 0 5 0 5 -5.2 0.3 -5.3 0.3 0 -5.6z"/>
  <path d="M13 36 c0 -2.7 0.3 -3 3 -3 2.7 0 3 0.3 3 3 0 2.7 -0.3 3 -3 3 -2.7 0 -3 -0.3 -3 -3z"/>
  <path d="M82 36 c0 -2.7 0.3 -3 3 -3 2.7 0 3 0.3 3 3 0 2.7 -0.3 3 -3 3 -2.7 0 -3 -0.3 -3 -3z"/>
 </g>
</svg>